<svg xmlns="http://www.w3.org/2000/svg" version="1.1" xmlns:xlink="http://www.w3.org/1999/xlink" xmlns:svgjs="http://svgjs.dev/svgjs" width="1000" height="1000" viewBox="0 0 1000 1000"><rect width="1000" height="1000" fill="#000000"></rect><g transform="matrix(0.7,0,0,0.7,149.57575757575756,282.1265587044535)"><svg viewBox="0 0 396 247" data-background-color="#1b4571" preserveAspectRatio="xMidYMid meet" height="623" width="1000" xmlns="http://www.w3.org/2000/svg" xmlns:xlink="http://www.w3.org/1999/xlink"><g id="tight-bounds" transform="matrix(1,0,0,1,0.2400000000000091,-0.09999999999999432)"><svg viewBox="0 0 395.52 247.2" height="247.2" width="395.52"><g><svg></svg></g><g><svg viewBox="0 0 395.52 247.2" height="247.2" width="395.52"><g transform="matrix(1,0,0,1,75.54432,56.41339939274853)"><svg viewBox="0 0 244.43135999999998 134.37320121450293" height="134.37320121450293" width="244.43135999999998"><g><svg viewBox="0 0 347.71725687548997 191.1533811532416" height="134.37320121450293" width="244.43135999999998"><g><rect width="9.184613457484797" height="165.97978103031107" x="70.05779269160516" y="12.586800061465269" fill="#ffffff" opacity="1" stroke-width="0" stroke="transparent" fill-opacity="1" class="rect-r$-0" data-fill-palette-color="primary" rx="1%" id="r$-0" data-palette-color="#0080ff"></rect></g><g transform="matrix(1,0,0,1,103.28589687548995,26.418448480657858)"><svg viewBox="0 0 244.43135999999998 138.3164841919259" height="138.3164841919259" width="244.43135999999998"><g id="textblocktransform"><svg viewBox="0 0 244.43135999999998 138.3164841919259" height="138.3164841919259" width="244.43135999999998" id="textblock"><g><svg viewBox="0 0 244.43135999999998 101.84639999999997" height="101.84639999999997" width="244.43135999999998"><g transform="matrix(1,0,0,1,0,0)"><svg width="244.43135999999998" viewBox="1 -35 84 35" height="101.84639999999997" data-palette-color="#0080ff"><path d="M34.5 0L24.4 0 24.4-2.75 27.45-2.75 25.15-9.25 9.75-9.25 7.5-2.75 11.1-2.75 11.1 0 1 0 1-2.75 4.3-2.75 15.95-35 19-35 31.05-2.75 34.5-2.75 34.5 0ZM24.25-11.75L17.3-31.2 10.6-11.75 24.25-11.75ZM85 0L74.9 0 74.9-2.75 77.95-2.75 75.65-9.25 60.25-9.25 58-2.75 61.6-2.75 61.6 0 51.5 0 51.5-2.75 54.8-2.75 66.45-35 69.5-35 81.55-2.75 85-2.75 85 0ZM74.75-11.75L67.8-31.2 61.1-11.75 74.75-11.75Z" opacity="1" transform="matrix(1,0,0,1,0,0)" fill="#ffffff" class="wordmark-text-0" data-fill-palette-color="primary" id="text-0"></path></svg></g></svg></g><g transform="matrix(1,0,0,1,0,125.88989072639997)"><svg viewBox="0 0 134.68167935999998 12.426593465525915" height="12.426593465525915" width="134.68167935999998"><g transform="matrix(1,0,0,1,0,0)"><svg width="134.68167935999998" viewBox="2.45 -27 298.03000000000003 27.5" height="12.426593465525915" data-palette-color="#ffffff"><path d="M24.55-6.05L26.1-4.65Q21.85 0.5 15.55 0.5L15.55 0.5Q12.6 0.5 10.2-0.48 7.8-1.45 6.08-3.23 4.35-5 3.4-7.48 2.45-9.95 2.45-12.95L2.45-12.95Q2.45-16 3.45-18.6 4.45-21.2 6.28-23.05 8.1-24.9 10.63-25.95 13.15-27 16.15-27L16.15-27Q21-27 23.65-24.38 26.3-21.75 26.3-16.85L26.3-16.85Q26.3-16.15 26.03-16 25.75-15.85 24.75-15.85L24.75-15.85 8.3-15.85Q8.2-15.45 8.15-14.88 8.1-14.3 8.1-13.6L8.1-13.6Q8.1-11 8.72-8.88 9.35-6.75 10.53-5.25 11.7-3.75 13.33-2.93 14.95-2.1 16.95-2.1L16.95-2.1Q19.05-2.1 20.85-3.03 22.65-3.95 24.55-6.05L24.55-6.05ZM8.65-18.15L17.85-18.15Q18.85-18.15 19.45-18.2 20.05-18.25 20.35-18.4 20.65-18.55 20.75-18.82 20.85-19.1 20.85-19.55L20.85-19.55Q20.85-21.85 19.38-23.23 17.9-24.6 15.35-24.6L15.35-24.6Q9.95-24.6 8.65-18.15L8.65-18.15ZM52.45-5.6L53.95-4.15Q52.15-1.95 49.3-0.73 46.45 0.5 43.15 0.5L43.15 0.5Q40.5 0.5 38.27-0.48 36.05-1.45 34.45-3.23 32.85-5 31.97-7.5 31.1-10 31.1-13.05L31.1-13.05Q31.1-16.25 32.1-18.82 33.1-21.4 34.92-23.23 36.75-25.05 39.32-26.03 41.9-27 45-27L45-27Q46.95-27 48.55-26.68 50.15-26.35 51.32-25.78 52.5-25.2 53.15-24.38 53.8-23.55 53.8-22.6L53.8-22.6Q53.8-21.6 53.15-21.05 52.5-20.5 51.35-20.5L51.35-20.5Q50.45-20.5 49.85-20.88 49.25-21.25 48.3-22.55L48.3-22.55Q47.3-23.7 46.37-24.18 45.45-24.65 44-24.65L44-24.65Q40.45-24.65 38.62-21.9 36.8-19.15 36.8-13.8L36.8-13.8Q36.8-8.05 38.82-5.08 40.85-2.1 44.75-2.1L44.75-2.1Q46.85-2.1 48.7-2.93 50.55-3.75 52.45-5.6L52.45-5.6ZM71.7-27L71.7-27Q74.55-27 77.1-25.98 79.65-24.95 81.57-23.15 83.5-21.35 84.62-18.88 85.75-16.4 85.75-13.45L85.75-13.45Q85.75-10.4 84.62-7.85 83.5-5.3 81.57-3.45 79.65-1.6 77.1-0.55 74.55 0.5 71.7 0.5L71.7 0.5Q68.9 0.5 66.37-0.53 63.85-1.55 61.95-3.4 60.05-5.25 58.95-7.83 57.85-10.4 57.85-13.45L57.85-13.45Q57.85-16.4 58.95-18.9 60.05-21.4 61.95-23.2 63.85-25 66.37-26 68.9-27 71.7-27ZM71.7-24.6L71.7-24.6Q69.85-24.6 68.32-23.8 66.8-23 65.72-21.53 64.65-20.05 64.07-17.98 63.5-15.9 63.5-13.4L63.5-13.4Q63.5-10.8 64.07-8.7 64.65-6.6 65.72-5.13 66.8-3.65 68.3-2.85 69.8-2.05 71.7-2.05L71.7-2.05Q73.6-2.05 75.15-2.85 76.7-3.65 77.8-5.15 78.9-6.65 79.5-8.75 80.1-10.85 80.1-13.4L80.1-13.4Q80.1-15.9 79.5-17.95 78.9-20 77.8-21.48 76.7-22.95 75.15-23.78 73.6-24.6 71.7-24.6ZM99.19-14.35L99.19-8Q99.19-5.9 99.29-4.7 99.39-3.5 99.82-2.88 100.24-2.25 101.04-2.05 101.84-1.85 103.29-1.75L103.29-1.75 103.29 0 89.99 0 89.99-1.75Q91.44-1.85 92.29-2.05 93.14-2.25 93.59-2.85 94.04-3.45 94.17-4.58 94.29-5.7 94.29-7.6L94.29-7.6 94.29-14Q94.29-16.85 94.22-18.75 94.14-20.65 93.94-21.35L93.94-21.35Q93.79-22 93.59-22.38 93.39-22.75 92.94-22.98 92.49-23.2 91.77-23.28 91.04-23.35 89.89-23.35L89.89-23.35 89.89-25.1 98.04-27 98.69-22 98.94-22Q101.19-24.55 103.67-25.78 106.14-27 109.14-27L109.14-27Q112.29-27 114.44-25.73 116.59-24.45 117.44-22.05L117.44-22.05 117.64-22.05Q119.49-24.4 122.14-25.7 124.79-27 127.79-27L127.79-27Q130.14-27 132.07-26.23 133.99-25.45 134.99-24.1L134.99-24.1Q135.89-22.95 136.27-21.08 136.64-19.2 136.64-15.95L136.64-15.95 136.64-8Q136.64-5.95 136.77-4.75 136.89-3.55 137.29-2.9 137.69-2.25 138.52-2.05 139.34-1.85 140.79-1.75L140.79-1.75 140.79 0 127.49 0 127.49-1.75Q128.89-1.8 129.74-2.02 130.59-2.25 131.04-2.88 131.49-3.5 131.62-4.6 131.74-5.7 131.74-7.6L131.74-7.6 131.74-13.9Q131.74-16.75 131.44-18.73 131.14-20.7 130.44-21.93 129.74-23.15 128.62-23.7 127.49-24.25 125.89-24.25L125.89-24.25Q123.69-24.25 121.77-23.03 119.84-21.8 118.74-19.75L118.74-19.75Q118.49-19.25 118.32-18.78 118.14-18.3 118.04-17.73 117.94-17.15 117.92-16.35 117.89-15.55 117.89-14.35L117.89-14.35 117.89-8Q117.89-5.95 117.99-4.75 118.09-3.55 118.52-2.9 118.94-2.25 119.79-2.05 120.64-1.85 122.09-1.75L122.09-1.75 122.09 0 108.79 0 108.79-1.75Q110.19-1.85 111.04-2.05 111.89-2.25 112.32-2.85 112.74-3.45 112.87-4.58 112.99-5.7 112.99-7.6L112.99-7.6 112.99-13.9Q112.99-16.8 112.69-18.78 112.39-20.75 111.72-21.98 111.04-23.2 109.94-23.73 108.84-24.25 107.24-24.25L107.24-24.25Q104.99-24.25 103.02-23.03 101.04-21.8 100.04-19.75L100.04-19.75Q99.79-19.25 99.62-18.78 99.44-18.3 99.34-17.73 99.24-17.15 99.22-16.35 99.19-15.55 99.19-14.35L99.19-14.35ZM152.84-14.35L152.84-8Q152.84-5.9 152.94-4.7 153.04-3.5 153.47-2.88 153.89-2.25 154.69-2.05 155.49-1.85 156.94-1.75L156.94-1.75 156.94 0 143.64 0 143.64-1.75Q145.09-1.85 145.94-2.05 146.79-2.25 147.24-2.85 147.69-3.45 147.82-4.58 147.94-5.7 147.94-7.6L147.94-7.6 147.94-14Q147.94-16.85 147.87-18.75 147.79-20.65 147.59-21.35L147.59-21.35Q147.44-22 147.24-22.38 147.04-22.75 146.59-22.98 146.14-23.2 145.42-23.28 144.69-23.35 143.54-23.35L143.54-23.35 143.54-25.1 151.69-27 152.34-22 152.59-22Q154.84-24.55 157.32-25.78 159.79-27 162.79-27L162.79-27Q165.94-27 168.09-25.73 170.24-24.45 171.09-22.05L171.09-22.05 171.29-22.05Q173.14-24.4 175.79-25.7 178.44-27 181.44-27L181.44-27Q183.79-27 185.72-26.23 187.64-25.45 188.64-24.1L188.64-24.1Q189.54-22.95 189.92-21.08 190.29-19.2 190.29-15.95L190.29-15.95 190.29-8Q190.29-5.95 190.42-4.75 190.54-3.55 190.94-2.9 191.34-2.25 192.17-2.05 192.99-1.85 194.44-1.75L194.44-1.75 194.44 0 181.14 0 181.14-1.75Q182.54-1.8 183.39-2.02 184.24-2.25 184.69-2.88 185.14-3.5 185.27-4.6 185.39-5.7 185.39-7.6L185.39-7.6 185.39-13.9Q185.39-16.75 185.09-18.73 184.79-20.7 184.09-21.93 183.39-23.15 182.27-23.7 181.14-24.25 179.54-24.25L179.54-24.25Q177.34-24.25 175.42-23.03 173.49-21.8 172.39-19.75L172.39-19.75Q172.14-19.25 171.97-18.78 171.79-18.3 171.69-17.73 171.59-17.15 171.57-16.35 171.54-15.55 171.54-14.35L171.54-14.35 171.54-8Q171.54-5.95 171.64-4.75 171.74-3.55 172.17-2.9 172.59-2.25 173.44-2.05 174.29-1.85 175.74-1.75L175.74-1.75 175.74 0 162.44 0 162.44-1.75Q163.84-1.85 164.69-2.05 165.54-2.25 165.97-2.85 166.39-3.45 166.52-4.58 166.64-5.7 166.64-7.6L166.64-7.6 166.64-13.9Q166.64-16.8 166.34-18.78 166.04-20.75 165.37-21.98 164.69-23.2 163.59-23.73 162.49-24.25 160.89-24.25L160.89-24.25Q158.64-24.25 156.67-23.03 154.69-21.8 153.69-19.75L153.69-19.75Q153.44-19.25 153.27-18.78 153.09-18.3 152.99-17.73 152.89-17.15 152.87-16.35 152.84-15.55 152.84-14.35L152.84-14.35ZM219.99-6.05L221.54-4.65Q217.29 0.5 210.99 0.5L210.99 0.5Q208.04 0.5 205.64-0.48 203.24-1.45 201.51-3.23 199.79-5 198.84-7.48 197.89-9.95 197.89-12.95L197.89-12.95Q197.89-16 198.89-18.6 199.89-21.2 201.71-23.05 203.54-24.9 206.06-25.95 208.59-27 211.59-27L211.59-27Q216.44-27 219.09-24.38 221.74-21.75 221.74-16.85L221.74-16.85Q221.74-16.15 221.46-16 221.19-15.85 220.19-15.85L220.19-15.85 203.74-15.85Q203.64-15.45 203.59-14.88 203.54-14.3 203.54-13.6L203.54-13.6Q203.54-11 204.16-8.88 204.79-6.75 205.96-5.25 207.14-3.75 208.76-2.93 210.39-2.1 212.39-2.1L212.39-2.1Q214.49-2.1 216.29-3.03 218.09-3.95 219.99-6.05L219.99-6.05ZM204.09-18.15L213.29-18.15Q214.29-18.15 214.89-18.2 215.49-18.25 215.79-18.4 216.09-18.55 216.19-18.82 216.29-19.1 216.29-19.55L216.29-19.55Q216.29-21.85 214.81-23.23 213.34-24.6 210.79-24.6L210.79-24.6Q205.39-24.6 204.09-18.15L204.09-18.15ZM235.19-9.65L235.19-7.95Q235.19-5.9 235.29-4.7 235.39-3.5 235.81-2.88 236.24-2.25 237.04-2.05 237.84-1.85 239.29-1.75L239.29-1.75 239.29 0 225.99 0 225.99-1.75Q227.44-1.8 228.29-2.02 229.14-2.25 229.59-2.85 230.04-3.45 230.16-4.58 230.29-5.7 230.29-7.6L230.29-7.6 230.29-13.45Q230.29-16.85 230.21-18.75 230.14-20.65 229.71-21.55 229.29-22.45 228.39-22.63 227.49-22.8 225.89-22.8L225.89-22.8 225.89-24.55 234.64-26.45 235.34-20.25 235.54-20.25Q236.19-21.75 237.16-23 238.14-24.25 239.29-25.13 240.44-26 241.69-26.5 242.94-27 244.24-27L244.24-27Q245.84-27 246.76-26.23 247.69-25.45 247.69-24.15L247.69-24.15Q247.69-22.95 246.94-22.28 246.19-21.6 244.79-21.6L244.79-21.6Q243.99-21.6 243.44-21.8 242.89-22 242.46-22.23 242.04-22.45 241.66-22.65 241.29-22.85 240.84-22.85L240.84-22.85Q239.49-22.85 238.14-21.13 236.79-19.4 236.04-16.75L236.04-16.75Q235.64-15.3 235.41-13.48 235.19-11.65 235.19-9.65L235.19-9.65ZM271.18-5.6L272.68-4.15Q270.88-1.95 268.03-0.73 265.18 0.5 261.88 0.5L261.88 0.5Q259.23 0.5 257.01-0.48 254.78-1.45 253.18-3.23 251.58-5 250.71-7.5 249.83-10 249.83-13.05L249.83-13.05Q249.83-16.25 250.83-18.82 251.83-21.4 253.66-23.23 255.48-25.05 258.06-26.03 260.63-27 263.73-27L263.73-27Q265.68-27 267.28-26.68 268.88-26.35 270.06-25.78 271.23-25.2 271.88-24.38 272.53-23.55 272.53-22.6L272.53-22.6Q272.53-21.6 271.88-21.05 271.23-20.5 270.08-20.5L270.08-20.5Q269.18-20.5 268.58-20.88 267.98-21.25 267.03-22.55L267.03-22.55Q266.03-23.7 265.11-24.18 264.18-24.65 262.73-24.65L262.73-24.65Q259.18-24.65 257.36-21.9 255.53-19.15 255.53-13.8L255.53-13.8Q255.53-8.05 257.56-5.08 259.58-2.1 263.48-2.1L263.48-2.1Q265.58-2.1 267.43-2.93 269.28-3.75 271.18-5.6L271.18-5.6ZM298.73-6.05L300.28-4.65Q296.03 0.5 289.73 0.5L289.73 0.5Q286.78 0.5 284.38-0.48 281.98-1.45 280.25-3.23 278.53-5 277.58-7.48 276.63-9.95 276.63-12.95L276.63-12.95Q276.63-16 277.63-18.6 278.63-21.2 280.45-23.05 282.28-24.9 284.81-25.95 287.33-27 290.33-27L290.33-27Q295.18-27 297.83-24.38 300.48-21.75 300.48-16.85L300.48-16.85Q300.48-16.15 300.2-16 299.93-15.85 298.93-15.85L298.93-15.85 282.48-15.85Q282.38-15.45 282.33-14.88 282.28-14.3 282.28-13.6L282.28-13.6Q282.28-11 282.91-8.88 283.53-6.75 284.7-5.25 285.88-3.75 287.5-2.93 289.13-2.1 291.13-2.1L291.13-2.1Q293.23-2.1 295.03-3.03 296.83-3.95 298.73-6.05L298.73-6.05ZM282.83-18.15L292.03-18.15Q293.03-18.15 293.63-18.2 294.23-18.25 294.53-18.4 294.83-18.55 294.93-18.82 295.03-19.1 295.03-19.55L295.03-19.55Q295.03-21.85 293.56-23.23 292.08-24.6 289.53-24.6L289.53-24.6Q284.13-24.6 282.83-18.15L282.83-18.15Z" opacity="1" transform="matrix(1,0,0,1,0,0)" fill="#ffffff" class="slogan-text-1" data-fill-palette-color="secondary" id="text-1"></path></svg></g></svg></g></svg></g></svg></g><g><svg viewBox="0 0 46.01430196520517 191.1533811532416" height="191.1533811532416" width="46.01430196520517"><g><svg xmlns="http://www.w3.org/2000/svg" xmlns:xlink="http://www.w3.org/1999/xlink" xml:space="preserve" style="shape-rendering:geometricPrecision;text-rendering:geometricPrecision;image-rendering:optimizeQuality;" viewBox="0.00006916321400526502 0 3.672843183250173 15.257786447674412" x="0" y="0" fill-rule="evenodd" clip-rule="evenodd" width="46.01430196520517" height="191.1533811532416" class="icon-icon-0" data-fill-palette-color="accent" id="icon-0"><g fill="#bf2051" data-fill-palette-color="accent"><path class="" d="M3.632 0c-0.058 1.386 0.398 4.406-0.762 5.145 0.432-0.156 0.436-0.2 0.432-0.156-0.075 0.936 0.213 2.016-0.632 2.568 0.224 0.084 0.434-0.29 0.425-0.208-0.05 0.52-0.32 6.765-2.972 7.902-0.858 0.368 3.043-13.716 3.509-15.251z" fill="#ffffff" data-fill-palette-color="accent"></path></g></svg></g></svg></g></svg></g></svg></g><g><path d="M0 123.6c0-68.262 55.338-123.6 123.6-123.6 39.77 0 75.153 18.783 97.762 47.963h-4.117c-22.067-27.287-55.818-44.734-93.645-44.735-66.48 0-120.372 53.892-120.372 120.372 0 66.48 53.892 120.372 120.372 120.372 37.826 0 71.578-17.448 93.645-44.735l4.117 0c-22.609 29.179-57.992 47.963-97.762 47.963-68.262 0-123.6-55.338-123.6-123.6z" fill="#ffffff" stroke="transparent" data-fill-palette-color="tertiary"></path></g></svg></g><defs></defs></svg><rect width="395.52" height="247.2" fill="none" stroke="none" visibility="hidden"></rect></g></svg></g></svg>